<svg width="61" height="60" viewBox="0 0 61 60" fill="none" xmlns="http://www.w3.org/2000/svg">
<rect x="0.5" width="60" height="60" rx="30" fill="#D4E0ED" fill-opacity="0.4"/>
<g clip-path="url(#clip0_791_414)">
<path fill-rule="evenodd" clip-rule="evenodd" d="M30.3197 15.0549C30.1091 15.1443 29.9737 15.376 29.7077 16.1025L29.4513 16.803L29.0215 16.9798L28.5919 17.1567L27.9063 16.8406C27.4122 16.6127 27.1497 16.5244 26.9661 16.524C26.7309 16.5235 26.6799 16.5538 26.3012 16.9189C25.8751 17.3297 25.7267 17.5452 25.7267 17.7528C25.7267 17.8199 25.8717 18.1942 26.049 18.5846C26.2262 18.975 26.3712 19.322 26.3712 19.3557C26.3712 19.3894 26.2989 19.5935 26.2105 19.8092L26.0498 20.2014L25.2978 20.4833C24.293 20.86 24.2618 20.897 24.2618 21.7164C24.2618 22.6521 24.244 22.632 25.4969 23.1103L26.058 23.3246L26.2147 23.7255C26.3007 23.946 26.3712 24.1455 26.3712 24.1689C26.3712 24.1922 26.2236 24.54 26.0432 24.9418C25.633 25.8555 25.6386 25.9315 26.1559 26.4707C26.5519 26.8833 26.7506 27.0117 26.9933 27.0117C27.0808 27.0117 27.4824 26.8652 27.8856 26.6862L28.6188 26.3606L28.9452 26.5037C29.1247 26.5824 29.3085 26.6577 29.3536 26.671C29.3986 26.6843 29.57 27.0474 29.7344 27.4778C30.1219 28.4923 30.1387 28.5058 31.0001 28.5058C31.8616 28.5058 31.8783 28.4923 32.2658 27.4778C32.4302 27.0474 32.6016 26.6843 32.6467 26.671C32.6918 26.6577 32.8758 26.5823 33.0557 26.5034L33.3828 26.36L34.1191 26.6859C34.524 26.8651 34.9253 27.0117 35.0107 27.0117C35.2496 27.0117 35.45 26.8817 35.8443 26.4707C36.3616 25.9315 36.3673 25.8555 35.957 24.9418C35.7766 24.54 35.629 24.1922 35.629 24.1689C35.629 24.1455 35.6999 23.945 35.7864 23.7235C35.9386 23.3337 35.9536 23.3169 36.247 23.2071C37.7836 22.6322 37.7379 22.6776 37.7382 21.7281C37.7385 20.8952 37.7095 20.8603 36.701 20.4806L35.9488 20.1973L35.7889 19.8071C35.701 19.5926 35.629 19.3894 35.629 19.3557C35.629 19.322 35.774 18.975 35.9513 18.5846C36.1285 18.1942 36.2736 17.8199 36.2736 17.7528C36.2736 17.5452 36.1251 17.3297 35.699 16.9189C35.3204 16.5538 35.2693 16.5235 35.0341 16.524C34.8506 16.5244 34.5881 16.6127 34.0939 16.8406L33.4084 17.1567L32.9787 16.9798L32.549 16.803L32.2891 16.0931C32.1428 15.6935 31.9601 15.3059 31.8711 15.2063C31.7155 15.032 31.7035 15.0291 31.0783 15.0158C30.7291 15.0084 30.3878 15.0259 30.3197 15.0549ZM30.4732 16.5583C30.1908 17.3204 30.0404 17.5379 29.7238 17.6419C29.604 17.6812 29.3435 17.7884 29.1449 17.8801C28.9464 17.9718 28.7063 18.0469 28.6114 18.0469C28.5165 18.0469 28.1253 17.9036 27.742 17.7285L27.045 17.4102L26.851 17.6013L26.6569 17.7924L26.9828 18.5289C27.1621 18.934 27.3087 19.3219 27.3087 19.3909C27.3087 19.4599 27.2528 19.6261 27.1843 19.7603C27.1159 19.8944 27.0098 20.1496 26.9487 20.3273C26.7847 20.8041 26.6402 20.9198 25.8409 21.2144L25.1357 21.4744L25.1528 21.7611L25.17 22.0478L25.832 22.2982C26.1961 22.436 26.5564 22.5896 26.6328 22.6397C26.7091 22.6897 26.8241 22.8699 26.8884 23.0401C26.9527 23.2103 27.0733 23.4946 27.1564 23.6719C27.2396 23.8491 27.3078 24.0544 27.3081 24.1281C27.3085 24.2018 27.1601 24.5921 26.9784 24.9954L26.648 25.7287L26.8135 25.9014C26.9046 25.9965 27.0101 26.0742 27.0482 26.0742C27.0861 26.0742 27.4124 25.9397 27.7733 25.7754C28.4762 25.4553 28.7032 25.4185 29.0075 25.5759C29.1132 25.6306 29.374 25.7408 29.5872 25.8208C29.8004 25.9009 30.0185 26.0058 30.0721 26.0539C30.1256 26.1021 30.2965 26.4823 30.4518 26.8989L30.7343 27.6562H31.0001H31.266L31.5484 26.8989C31.7038 26.4823 31.8747 26.1021 31.9282 26.0539C31.9817 26.0058 32.1999 25.9009 32.4131 25.8208C32.6262 25.7408 32.8871 25.6306 32.9928 25.5759C33.2971 25.4185 33.524 25.4553 34.2269 25.7754C34.5878 25.9397 34.9141 26.0742 34.9521 26.0742C34.9901 26.0742 35.0956 25.9965 35.1867 25.9014L35.3522 25.7287L35.0219 24.9954C34.8402 24.5921 34.6918 24.2018 34.6921 24.1281C34.6924 24.0544 34.7607 23.8491 34.8438 23.6719C34.927 23.4946 35.0475 23.2103 35.1118 23.0401C35.1761 22.8699 35.2912 22.6897 35.3675 22.6397C35.4438 22.5896 35.8042 22.436 36.1683 22.2982L36.8302 22.0478L36.8474 21.7612L36.8646 21.4746L36.1735 21.2187C35.7935 21.078 35.4108 20.8957 35.323 20.8137C35.2352 20.7317 35.1195 20.5305 35.0658 20.3665C35.0122 20.2025 34.906 19.944 34.8299 19.792C34.7538 19.64 34.6915 19.4593 34.6915 19.3905C34.6915 19.3217 34.8382 18.934 35.0174 18.5289L35.3434 17.7924L35.1493 17.6026L34.9552 17.4128L34.2521 17.729C33.8654 17.903 33.4741 18.0456 33.3827 18.046C33.2912 18.0465 33.0539 17.9718 32.8553 17.8801C32.6567 17.7884 32.3962 17.6812 32.2765 17.6419C31.9598 17.5379 31.8094 17.3204 31.527 16.5583L31.2753 15.8789H31.0001H30.725L30.4732 16.5583ZM30.3797 18.8369C29.2674 19.0789 28.306 20.0406 28.0766 21.1406C27.7549 22.6832 28.7161 24.2342 30.2461 24.6414C30.649 24.7487 31.3512 24.7487 31.7542 24.6414C33.3173 24.2254 34.2929 22.5971 33.8988 21.0621C33.6094 19.9353 32.7193 19.0728 31.6011 18.8359C31.1223 18.7345 30.8496 18.7347 30.3797 18.8369ZM30.4742 19.7228C29.8357 19.8944 29.3629 20.2957 29.0744 20.9109C28.9435 21.1902 28.92 21.3202 28.92 21.7676C28.92 22.2166 28.9432 22.3445 29.0765 22.6287C29.2761 23.0545 29.6839 23.4623 30.1097 23.6619C30.398 23.797 30.5193 23.8183 31.0001 23.8183C31.4809 23.8183 31.6022 23.797 31.8905 23.6619C32.3156 23.4626 32.6913 23.087 32.9092 22.6433C33.0597 22.3367 33.0802 22.2316 33.0802 21.7676C33.0802 21.3202 33.0568 21.1902 32.9258 20.9109C32.6314 20.2832 32.1221 19.8603 31.4775 19.7086C31.0643 19.6114 30.8792 19.614 30.4742 19.7228ZM18.6661 21.4677C18.314 21.6342 18.0987 21.8529 17.9385 22.207C17.8214 22.4657 17.8191 22.567 17.8178 27.4977L17.8165 32.5249L17.9669 32.6752C18.0882 32.7965 18.1533 32.8186 18.3038 32.7896C18.4064 32.7698 18.5365 32.6979 18.5929 32.63C18.6888 32.5145 18.6954 32.1834 18.6954 27.528V22.5496L18.8667 22.3783L19.038 22.207H20.8803C22.6554 22.207 22.7282 22.2026 22.877 22.0856C23.0705 21.9334 23.0887 21.6198 22.9142 21.4453C22.8017 21.3329 22.7193 21.3281 20.8781 21.3287C18.983 21.3292 18.9555 21.331 18.6661 21.4677ZM39.0275 21.4453C38.853 21.6198 38.8712 21.9334 39.0647 22.0856C39.2136 22.2027 39.2859 22.207 41.0907 22.207H42.9623L43.1335 22.3783L43.3048 22.5496V27.5079V32.4663L43.4487 32.61C43.6332 32.7946 43.8874 32.7981 44.0563 32.6183L44.1837 32.4827L44.1824 27.4767C44.1811 22.5672 44.1789 22.4656 44.0618 22.207C43.9015 21.8529 43.6862 21.6342 43.3341 21.4677C43.0445 21.3309 43.0188 21.3292 41.0929 21.3287C39.2223 21.3281 39.14 21.3328 39.0275 21.4453ZM25.3458 28.4538C25.011 28.5599 24.8017 28.761 22.8995 30.8038C21.8691 31.9106 21.7423 32.0684 21.7423 32.2447C21.7423 32.4648 21.8636 32.6066 22.1029 32.6664C22.3086 32.7177 22.413 32.6206 24.0873 30.8227C24.8302 30.025 25.5042 29.3422 25.5851 29.3053C25.769 29.2215 25.8593 29.2211 26.0396 29.3032C26.2161 29.3837 30.3263 33.7813 30.3263 33.8897C30.3263 33.9329 29.8121 34.5168 29.1837 35.1875L28.0411 36.4068L28.0101 35.7375C27.9733 34.9424 27.8567 34.643 27.4417 34.2777C26.9606 33.8542 27.1323 33.8672 22.006 33.8672C16.7407 33.8672 17.013 33.8427 16.4944 34.3614C15.9789 34.8769 16.0001 34.6571 16.0001 39.4713C16.0001 43.5424 16.0032 43.6561 16.1206 43.9699C16.2058 44.1977 16.326 44.3682 16.5311 44.5527C17.0529 45.0218 16.7866 45 21.9765 45C27.2749 45 26.9988 45.0246 27.5176 44.5057C27.9879 44.0355 28.0118 43.9097 28.0118 41.9132V40.2539H31.0001H33.9884V41.9132C33.9884 43.9097 34.0124 44.0355 34.4826 44.5057C35.0015 45.0246 34.7253 45 40.0237 45C45.2972 45 44.9829 45.0288 45.5151 44.4965C45.735 44.2766 45.8426 44.1132 45.894 43.9209C45.9335 43.7732 45.9867 43.6523 46.0123 43.6523C46.0378 43.6523 46.0587 41.7391 46.0587 39.4008C46.0587 37.0625 46.0374 35.1625 46.0114 35.1786C45.9853 35.1947 45.9321 35.0886 45.8931 34.9428C45.8424 34.7533 45.7331 34.5885 45.5096 34.3652C45.0511 33.9066 44.8736 33.8672 43.2673 33.8672H41.962L39.527 31.2646C36.8437 28.3964 36.8371 28.3908 36.1857 28.3908C35.5432 28.3908 35.5031 28.4244 33.1651 30.9268C32.0004 32.1734 31.0261 33.1933 31.0001 33.1933C30.9741 33.1933 29.9999 32.1734 28.8351 30.9268C27.2594 29.2402 26.6524 28.6287 26.4632 28.5371C26.1188 28.3704 25.7061 28.3396 25.3458 28.4538ZM35.8706 29.3701C35.7683 29.4426 33.9583 31.3528 31.8483 33.6149L28.0118 37.7279V38.5515V39.375H31.0001H33.9884V37.3349C33.9884 35.0158 34.0073 34.8822 34.399 34.4373C34.5283 34.2903 34.7592 34.1084 34.9119 34.0332C35.1881 33.8972 35.2045 33.8963 37.9593 33.8672L40.729 33.8379L38.7095 31.6699C37.5988 30.4775 36.6057 29.4426 36.5025 29.3701C36.3992 29.2976 36.2567 29.2383 36.1857 29.2383C36.1147 29.2383 35.9729 29.2976 35.8706 29.3701ZM17.2481 34.8609C16.8632 35.0955 16.879 34.8994 16.8793 39.4453C16.8794 43.4274 16.8832 43.5707 16.9939 43.752C17.2297 44.1389 16.9877 44.1211 22.006 44.1211C27.0243 44.1211 26.7823 44.1389 27.0181 43.752C27.1287 43.5707 27.1325 43.4275 27.1325 39.4336C27.1325 35.3935 27.1299 35.2984 27.0142 35.1088C26.7858 34.734 26.9533 34.7461 21.9639 34.7463C17.5761 34.7465 17.4299 34.7501 17.2481 34.8609ZM35.2364 34.8609C34.8515 35.0955 34.8673 34.8994 34.8675 39.4453C34.8677 43.4274 34.8715 43.5707 34.9822 43.752C35.218 44.1389 34.9759 44.1211 39.9943 44.1211C45.0126 44.1211 44.7705 44.1389 45.0064 43.752C45.1148 43.5743 45.1208 43.4421 45.121 41.2432C45.1212 38.9838 45.1244 38.918 45.2427 38.7677C45.3968 38.5717 45.6962 38.5565 45.8592 38.7365C45.964 38.8523 45.9727 39.0061 46.0014 41.2707C46.0254 43.1601 46.0324 42.7564 46.0337 39.4043C46.0346 37.0517 46.0209 35.5315 46.0031 36.0258C45.9724 36.8808 45.9641 36.9302 45.8325 37.0366C45.6443 37.1887 45.4375 37.1771 45.2651 37.0046C45.127 36.8665 45.1212 36.83 45.1212 36.0935C45.1212 35.2319 45.0678 35.0533 44.7521 34.8609C44.5703 34.7501 44.424 34.7465 39.9943 34.7465C35.5645 34.7465 35.4182 34.7501 35.2364 34.8609ZM37.8612 36.6952C37.7838 36.735 37.6651 36.842 37.5975 36.9329C37.4788 37.0928 37.4741 37.1707 37.4567 39.306C37.4447 40.7626 37.46 41.587 37.5017 41.729C37.5923 42.0385 37.8618 42.2461 38.1731 42.2461C38.3879 42.2461 38.6979 42.0934 40.3805 41.1593C41.4571 40.5616 42.4106 39.9943 42.4991 39.8986C42.7045 39.677 42.7262 39.2402 42.5434 39.0079C42.4522 38.8919 39.5263 37.2022 38.5763 36.7169C38.3543 36.6035 38.0572 36.5945 37.8612 36.6952ZM18.7775 36.9391C18.4952 37.062 18.4242 37.4045 18.6368 37.6172C18.7512 37.7316 18.8321 37.7344 22.006 37.7344C25.1798 37.7344 25.2607 37.7316 25.3751 37.6172C25.5981 37.3942 25.502 37.0283 25.1918 36.9202C24.8986 36.818 19.0159 36.8353 18.7775 36.9391ZM38.3243 39.4336C38.3243 40.4326 38.3434 41.25 38.3669 41.25C38.4325 41.25 41.6056 39.4732 41.6054 39.4366C41.6052 39.401 38.4271 37.6172 38.3638 37.6172C38.3421 37.6172 38.3243 38.4346 38.3243 39.4336ZM18.6368 39.1406C18.4138 39.3636 18.51 39.7295 18.8201 39.8376C19.0789 39.9278 24.9331 39.9278 25.1918 39.8376C25.502 39.7295 25.5981 39.3636 25.3751 39.1406C25.2607 39.0262 25.1798 39.0234 22.006 39.0234C18.8321 39.0234 18.7512 39.0262 18.6368 39.1406ZM18.6368 41.25C18.4888 41.3981 18.4864 41.6648 18.6317 41.8441L18.7437 41.9824H22.006H25.2683L25.3803 41.8441C25.5255 41.6648 25.5232 41.3981 25.3751 41.25C25.2607 41.1356 25.1798 41.1328 22.006 41.1328C18.8321 41.1328 18.7512 41.1356 18.6368 41.25Z" fill="#3E6B99"/>
</g>
<defs>
<clipPath id="clip0_791_414">
<rect width="30" height="30" fill="white" transform="translate(16 15)"/>
</clipPath>
</defs>
</svg>
