<svg width="61" height="60" viewBox="0 0 61 60" fill="none" xmlns="http://www.w3.org/2000/svg">
<rect x="0.5" width="60" height="60" rx="30" fill="#D4E0ED" fill-opacity="0.4"/>
<path d="M43.5 29.4584C43.5 36.0624 37.9028 41.4167 31 41.4167C30.1884 41.4179 29.379 41.3428 28.5818 41.1931C28.0079 41.0853 27.721 41.0314 27.5207 41.062C27.3203 41.0926 27.0365 41.2435 26.4687 41.5455C24.8627 42.3996 22.9899 42.7012 21.1889 42.3662C21.8734 41.5242 22.3409 40.514 22.5472 39.431C22.6722 38.7685 22.3625 38.125 21.8986 37.6539C19.7917 35.5144 18.5 32.6314 18.5 29.4584C18.5 22.8545 24.0972 17.5 31 17.5C37.9028 17.5 43.5 22.8545 43.5 29.4584Z" stroke="#3E6B99" stroke-width="1.5" stroke-linejoin="round"/>
<path d="M29.125 27.5481C29.125 26.486 29.9645 25.625 31 25.625C32.0355 25.625 32.875 26.486 32.875 27.5481C32.875 27.9309 32.7659 28.2876 32.5779 28.5872C32.0176 29.4805 31 30.3321 31 31.3943V31.875" stroke="#3E6B99" stroke-width="1.5" stroke-linecap="round"/>
<path d="M31 34.375H31.0112" stroke="#3E6B99" stroke-width="1.5" stroke-linecap="round" stroke-linejoin="round"/>
</svg>
