<svg width="70" height="75" viewBox="0 0 70 75" fill="none" xmlns="http://www.w3.org/2000/svg">
<path fill-rule="evenodd" clip-rule="evenodd" d="M56.807 0.61621C56.2158 1.03041 55.6768 1.11022 55.259 0.845828C54.1622 0.152071 51.6676 0.386146 50.1476 1.32557C48.6277 2.265 47.2611 4.56965 47.2611 6.19303C47.2611 9.28462 50.0576 12.0142 53.2276 12.0173C55.0566 12.0191 57.6934 10.686 58.1343 9.53697C58.3399 9.00105 58.7273 9.18831 59.9539 10.4144C62.1845 12.6455 65.9873 13.5114 65.9873 11.7886C65.9873 11.4689 65.3854 9.93557 64.6501 8.38086C63.9145 6.82615 63.3125 5.11583 63.3125 4.5799C63.3121 3.25659 62.6491 1.61092 61.7569 0.718758C60.8465 -0.191687 58.0434 -0.24965 56.807 0.61621ZM13.9572 1.27385C11.9254 2.54857 11.0011 4.17863 11.0355 6.42799C11.0716 8.81334 12.0503 10.3743 14.1293 11.3605C18.6022 13.4828 23.3555 9.29889 21.9194 4.50411C20.9162 1.15704 16.8036 -0.511815 13.9572 1.27385ZM57.8401 1.3599C57.0915 1.79595 57.0973 1.88112 57.9515 2.96723C58.4478 3.59768 58.8535 4.59462 58.8535 5.18271C58.8535 7.93188 61.1671 10.8991 63.7062 11.4069L65.1722 11.6998L63.861 9.07283C63.1396 7.62825 62.4293 5.67226 62.2822 4.72659C61.7681 1.41608 60.0199 0.0909868 57.8401 1.3599ZM14.8819 1.96271C13.0494 2.75545 12.0382 4.27048 12.0382 6.2229C12.0382 8.18201 13.0579 9.70239 14.8832 10.4653C16.6738 11.2134 18.4211 10.8647 19.8015 9.48436C21.9234 7.36252 21.6483 4.36233 19.172 2.62124C17.5183 1.45889 16.4326 1.29213 14.8819 1.96271ZM51.4469 1.75538C48.9202 2.7764 47.7525 6.74634 49.2894 9.09156C50.9127 11.5692 54.8176 11.6744 56.8204 9.29443C58.833 6.90239 57.9292 3.15583 55.0485 1.95201C53.3431 1.23952 52.7974 1.20965 51.4469 1.75538ZM32.1019 6.10073C31.2436 6.76373 28.898 8.66755 26.8898 10.3315L23.2378 13.3567H16.664C8.60554 13.3567 6.99197 13.9225 4.72478 17.5424C2.6658 20.8297 0 27.0383 0 28.5462C0 29.6996 1.92389 37.4496 3.18522 41.3776C3.72382 43.054 5.86573 44.2525 7.54083 43.8147C8.52885 43.5561 8.53242 43.5757 8.26936 47.7391C8.12357 50.0407 7.79943 56.3273 7.54841 61.7102C7.11771 70.9515 7.13866 71.5583 7.9207 72.6052C9.64217 74.9112 12.9518 74.6976 14.1043 72.2061C14.4031 71.5596 14.8329 66.0716 15.132 59.0738C15.4152 52.4617 15.7375 46.9611 15.849 46.8496C16.4808 46.2179 16.7117 48.4405 17.1763 59.6231C17.459 66.4233 17.8464 72.3439 18.0377 72.78C18.9348 74.8256 22.6064 75.0886 24.0903 73.2133C25.0332 72.0216 25.0524 71.7558 24.7738 63.7388C24.6164 59.2022 24.372 54.4413 24.2316 53.1586L23.9761 50.8272L26.3668 51.5321C27.6821 51.92 29.009 52.4421 29.3153 52.6922C30.0808 53.3173 30.0304 58.3354 29.1815 66.0314C28.5538 71.7224 28.5546 72.3965 29.1918 73.3689C30.5637 75.4627 33.8497 74.4025 33.9166 71.8441C33.9339 71.1869 34.111 69.9438 34.3 69.4596C34.658 60.7497 34.7124 69.4668 34.9438 71.2105C35.2831 73.7711 36.1534 74.5982 38.2512 74.3556C40.3543 74.1122 40.5955 72.7398 39.6481 66.414C39.1889 63.3487 38.8076 58.9779 38.8014 56.7005L38.7898 52.5607L40.8332 51.6846C41.9572 51.203 42.9724 50.8089 43.0897 50.8089C43.2069 50.8089 43.1677 51.7122 43.0019 52.8161C42.6331 55.2773 43.5761 57.0509 45.2548 57.0509H46.3489L46.4706 64.9172L46.5924 72.784L47.765 73.6587C48.6402 74.3119 49.2943 74.4555 50.3438 74.225C52.698 73.7078 53.0159 72.6984 53.3458 64.6992C53.6026 58.4621 53.9392 56.4437 54.6094 57.1178C54.695 57.2034 54.9415 60.76 55.1578 65.0211C55.5292 72.3444 55.6072 72.8139 56.5827 73.6039C57.9783 74.7337 60.2767 74.6847 61.3481 73.5018C62.1003 72.6716 62.2144 71.6876 62.3441 64.9007L62.4913 57.2373L63.7945 56.6603C65.6101 55.8569 65.7554 54.6821 64.688 49.449C63.5431 43.8343 63.5346 44.121 64.8401 44.121C65.4683 44.121 66.2967 43.6457 66.8134 42.9885C67.7029 41.8578 70 33.1279 70 30.8785C70 29.1517 63.1561 17.2891 61.0752 15.4094C60.1006 14.5284 58.6395 13.7191 57.7099 13.5448C56.066 13.2363 50.9943 13.5381 49.2122 14.0509C48.4543 14.2684 47.4087 13.5051 43.9872 10.2334C40.6892 7.08118 39.2303 5.99997 37.6181 5.51443C34.699 4.63608 33.8862 4.72258 32.1019 6.10073ZM33.4275 6.53455C32.8211 6.95099 30.3434 8.90608 27.9215 10.879L23.5182 14.4664L17.6494 14.3148C10.8081 14.1382 8.75535 14.5672 6.80471 16.5807C5.34318 18.0895 0.892612 26.9701 0.890383 28.383C0.887708 29.94 4.1358 41.2336 4.80726 42.0032C6.18497 43.581 8.94217 42.5074 8.8958 40.411C8.88376 39.8764 8.22478 37.0318 7.43115 34.0891L5.9879 28.7388L7.52834 25.2834C8.37548 23.3827 9.25115 21.828 9.47452 21.828C9.70771 21.828 9.84637 25.5768 9.80045 30.6337C9.7563 35.4767 9.73936 39.7404 9.7621 40.1082C9.78529 40.4761 9.62656 43.285 9.40898 46.3503C9.1914 49.4156 8.88376 55.4347 8.72459 59.7261C8.56586 64.0175 8.3251 68.2875 8.18911 69.2153C7.76197 72.1326 9.6435 73.8215 12.2197 72.833C13.3597 72.3956 13.7329 69.819 14.0232 60.3949C14.1739 55.4904 14.4155 50.2128 14.56 48.667L14.8226 45.8563L16.2168 45.9918L17.6115 46.1274L18.1327 58.9819C18.6962 72.8914 18.8367 73.5477 21.2475 73.5477C22.2778 73.5477 24.0764 72.1535 24.0764 71.355C24.0764 71.1298 23.8633 66.4113 23.6029 60.8697C23.1428 51.0867 23.0973 50.7621 22.0424 49.7072C20.7227 48.3874 20.6843 47.707 21.8471 46.2286C22.6452 45.2138 22.7389 44.4197 22.7389 38.6588C22.7389 35.1191 22.8695 29.7946 23.0291 26.8265L23.3194 21.4298L29.0482 16.6788C32.1991 14.0656 34.7771 11.8777 34.7771 11.8171C34.7771 11.756 34.559 11.0801 34.292 10.315C33.9068 9.20971 33.9527 8.63232 34.5149 7.50475C34.9046 6.72449 35.2229 6.01647 35.2229 5.93131C35.2229 5.57061 34.4543 5.82876 33.4275 6.53455ZM35.758 7.20379C35.4637 7.49806 35.2229 8.28188 35.2229 8.94532C35.2229 9.91016 36.3924 11.2727 41.0673 15.754L46.9116 21.3567L47.3111 24.9307C47.6299 27.7798 47.5362 29.614 46.8487 33.9723C45.2985 43.8022 45.2775 44.2476 46.3311 45.2009C46.8425 45.6637 47.2611 46.513 47.2611 47.0882C47.2611 48.1186 46.1041 49.634 45.0483 49.9858C44.2668 50.2467 43.5989 54.2558 44.1615 55.3081C44.5878 56.1039 45.2213 56.1592 53.9544 56.1592C65.6292 56.1592 65.079 56.5623 63.5618 49.1249C62.9251 46.0016 62.2189 43.7447 61.6981 43.1686C61.0222 42.4205 60.8822 41.6585 60.9749 39.2348C61.0391 37.5637 60.7132 34.3678 60.2419 32.0377C59.4398 28.0749 59.4202 24.949 60.1978 24.949C60.3913 24.949 61.3106 26.4275 62.2407 28.2346L63.9323 31.5205L62.9536 35.5872C61.7306 40.6678 61.7061 42.1628 62.8368 42.7678C65.3038 44.088 66.2534 42.976 67.7836 36.9765C68.5015 34.1623 69.0931 31.4826 69.0985 31.0212C69.1087 30.1451 63.5453 20.0312 61.621 17.4278C59.8759 15.067 57.1463 14.0816 53.3788 14.453C51.668 14.6216 49.7829 14.9439 49.1895 15.17C48.2175 15.5391 47.6424 15.1356 43.425 11.1247C39.826 7.70181 38.4559 6.66876 37.5164 6.66876C36.8436 6.66876 36.0522 6.90952 35.758 7.20379ZM29.8307 17.3681L24.2155 22.2297L23.9066 31.99C23.7362 37.3577 23.7269 42.5596 23.8852 43.5498L24.1732 45.3498L28.0687 46.5188C33.4654 48.1382 35.6715 48.057 40.2175 46.0721C42.2524 45.183 43.9934 44.3881 44.0866 44.3047C44.1803 44.2213 44.796 40.6562 45.4559 36.3817C46.4082 30.2088 46.5852 27.9358 46.3159 25.3307L45.9766 22.0509L41.0213 17.2579C38.2958 14.6216 35.9265 12.4743 35.7557 12.4854C35.5854 12.497 32.9192 14.6938 29.8307 17.3681ZM7.80121 27.1805C7.1565 28.4276 7.13777 28.8864 7.64962 30.9003L8.23325 33.1974L8.5079 29.6305C8.65949 27.6688 8.72771 25.995 8.65994 25.9107C8.59261 25.8265 8.20605 26.3981 7.80121 27.1805ZM60.6655 28.8503C60.7243 30.4469 61.8216 34.9189 62.0548 34.5118C62.8502 33.1239 62.8221 31.5147 61.9741 29.8526C60.986 27.9158 60.6209 27.6362 60.6655 28.8503ZM31.2597 38.5745C29.5525 40.011 29.0821 42.161 30.0608 44.0537C30.9173 45.7105 32.1545 46.4394 34.1083 46.4394C36.062 46.4394 37.2993 45.7105 38.1558 44.0537C39.6517 41.1609 37.3724 37.4331 34.1083 37.4331C33.1577 37.4331 32.1238 37.8473 31.2597 38.5745ZM31.8589 39.4194C29.5676 41.7102 30.9636 45.4586 34.1083 45.4586C37.2583 45.4586 38.7385 41.3914 36.3394 39.328C34.8225 38.023 33.2224 38.0555 31.8589 39.4194ZM40.5732 47.0458C36.3456 48.9519 33.2861 49.0513 27.6504 47.4667C23.2012 46.2161 22.178 46.3351 22.3804 48.0793C22.5025 49.1338 22.9199 49.3768 26.6401 50.5574L30.7643 51.8669L30.7385 56.5765C30.7242 59.167 30.4518 63.6942 30.1334 66.6369C29.5271 72.2391 29.7237 73.5477 31.1714 73.5477C32.5482 73.5477 32.8902 72.6288 33.3971 67.5661C33.6651 64.8891 33.9883 62.5952 34.1154 62.4686C34.7133 61.8702 35.1592 63.4517 35.5934 67.7114C36.1004 72.6841 36.6635 73.8581 38.294 73.3404C39.4425 72.9761 39.4822 71.907 38.5669 65.9681C38.208 63.6385 37.9106 59.5072 37.9061 56.787L37.8981 51.8415L41.708 50.1441C45.6917 48.3687 46.5888 47.5233 45.8638 46.2272C45.2726 45.1714 44.446 45.2994 40.5732 47.0458ZM47.2611 64.2141C47.2611 68.2991 47.4596 71.7478 47.7226 72.2396C48.0378 72.8281 48.6576 73.1019 49.675 73.1019C51.7465 73.1019 52.059 72.0496 52.4233 63.8503L52.7256 57.0509H49.9934H47.2611V64.2141ZM56.074 63.4044C56.2956 71.244 56.679 72.9868 58.2699 73.3859C60.6918 73.994 60.8487 73.504 60.9816 64.9168L61.1033 57.0509H58.4986H55.8943L56.074 63.4044Z" fill="#3E6B99"/>
<g clip-path="url(#clip0_308_1620)">
<path d="M29.1667 26.7646C29.1667 29.4601 31.5114 30.8965 33.2278 32.1822C33.8334 32.6359 34.4167 33.063 35.0001 33.063C35.5834 33.063 36.1667 32.6359 36.7724 32.1822C38.4888 30.8965 40.8334 29.4601 40.8334 26.7646C40.8334 24.0691 37.625 22.1576 35.0001 24.749C32.3752 22.1576 29.1667 24.0691 29.1667 26.7646Z" fill="#3E6B99"/>
<path d="M29.1667 26.7646C29.1667 29.4601 31.5114 30.8965 33.2278 32.1822C33.8334 32.6359 34.4167 33.063 35.0001 33.063C35.5834 33.063 36.1667 32.6359 36.7724 32.1822C38.4888 30.8965 40.8334 29.4601 40.8334 26.7646C40.8334 24.0691 37.625 22.1576 35.0001 24.749C32.3752 22.1576 29.1667 24.0691 29.1667 26.7646Z" fill="#3E6B99"/>
</g>
<defs>
<clipPath id="clip0_308_1620">
<rect width="14" height="13.303" fill="white" transform="translate(28 21.7)"/>
</clipPath>
</defs>
</svg>
