<svg width="61" height="60" viewBox="0 0 61 60" fill="none" xmlns="http://www.w3.org/2000/svg">
<rect x="0.5" width="60" height="60" rx="30" fill="#D4E0ED" fill-opacity="0.4"/>
<path fill-rule="evenodd" clip-rule="evenodd" d="M21.511 16.5184C21.1448 16.8332 21.132 16.8881 21.0882 18.3215L21.043 19.8H19.8081C17.8977 19.8 17.0936 20.192 16.4804 21.4224L16.1333 22.1191L16.1341 30.2595C16.1345 35.5285 16.1841 38.5776 16.2746 38.9036C16.4512 39.5395 17.0816 40.2635 17.7873 40.6412C18.3185 40.9253 18.4757 40.9344 23.5674 40.9737L28.8014 41.0143L28.718 41.3737C28.6721 41.5716 28.5265 41.9851 28.3946 42.2927C28.1602 42.8395 28.1389 42.8529 27.4453 42.8927C26.6922 42.9359 26.4618 43.1927 26.8053 43.6064C27.0446 43.8947 34.9553 43.8947 35.1946 43.6064C35.5381 43.1927 35.3077 42.9359 34.5546 42.8927C33.861 42.8529 33.8397 42.8395 33.6053 42.2927C33.4734 41.9851 33.327 41.5683 33.2802 41.3667L33.1949 41H37.9125C40.5154 41 42.9522 40.9399 43.3485 40.8657C44.3442 40.6796 45.0538 40.1549 45.5 39.2752L45.8666 38.5521V30.4752C45.8666 25.6165 45.8148 22.2173 45.7364 21.944C45.5161 21.1761 44.9493 20.4985 44.2254 20.1377C43.5624 19.8073 43.4842 19.8 40.6405 19.8H37.7333V18.3481C37.7333 17.1173 37.6945 16.8483 37.4785 16.5815L37.2237 16.2667L29.5562 16.2301L21.8889 16.1937L21.511 16.5184ZM22.1333 19.2V21.2667H26.769H31.4048L32.9801 22.6111C33.8465 23.3505 34.5876 23.9236 34.6266 23.8844C34.6658 23.8452 34.8272 23.2552 34.985 22.5732L35.2722 21.3333L36.0361 21.2933L36.8 21.2533V19.1933V17.1333H29.4666H22.1333V19.2ZM18.3333 20.9216C17.8429 21.1395 17.3981 21.6091 17.2089 22.1087C17.1148 22.3571 17.0666 24.8275 17.0666 29.4087V36.3333H18.1974C19.3221 36.3333 19.3286 36.3313 19.4108 35.9667C19.838 34.0699 20.3077 33.1952 21.5848 31.9183C22.3414 31.1619 22.8433 30.7901 23.555 30.4589L24.5102 30.0147L23.9984 29.4333C22.3956 27.6124 22.9388 24.8243 25.1149 23.7031C25.6656 23.4193 25.983 23.3504 26.7333 23.3517C27.8342 23.3539 28.4144 23.5732 29.2061 24.2871C30.744 25.6733 30.8117 28.2184 29.3476 29.5941L28.9281 29.9883L29.6973 30.3389C30.1205 30.5319 30.8836 31.0061 31.3932 31.3929C32.3034 32.0839 32.3257 32.0923 32.6598 31.876C32.8469 31.7549 33.27 31.5244 33.6 31.3639C33.93 31.2033 34.2256 31.0552 34.2569 31.0347C34.2882 31.014 34.1601 30.8328 33.9721 30.632C33.3662 29.9844 33.1422 29.3999 33.1422 28.4667C33.1422 25.7111 36.281 24.2881 38.3474 26.1069C39.1228 26.7893 39.4598 27.5043 39.4637 28.4739C39.4668 29.2621 39.0349 30.3461 38.5386 30.7952C38.2913 31.0189 38.3118 31.0405 39.1864 31.478C40.7465 32.2585 42.0104 33.842 42.4514 35.5687L42.6297 36.2667L43.7816 36.3052L44.9333 36.3437V29.3668C44.9333 22.3937 44.9332 22.3895 44.6333 21.8048C44.1194 20.8025 43.8566 20.7333 40.5688 20.7333H37.7333L37.729 21.1C37.7217 21.7347 37.1681 22.2 36.4201 22.2C36.0341 22.2 36.0157 22.2297 35.7808 23.2333C35.5193 24.3503 35.1573 24.8667 34.6357 24.8667C34.2542 24.8667 34.0072 24.6971 32.361 23.3044L31.0554 22.2H26.479C22.0721 22.2 21.8897 22.1899 21.5562 21.9276C21.3582 21.7719 21.1729 21.4576 21.1234 21.1943L21.0369 20.7333L19.8852 20.7385C19.2257 20.7416 18.5624 20.8197 18.3333 20.9216ZM26.2 24.3251C25.1158 24.588 24.403 25.2864 24.1134 26.3691C23.6618 28.0572 24.9637 29.6667 26.7808 29.6667C28.3094 29.6667 29.4716 28.4991 29.4637 26.9709C29.4552 25.2936 27.7858 23.9403 26.2 24.3251ZM35.6285 26.2947C35.1408 26.3881 34.3144 27.2716 34.1269 27.9C33.8996 28.6617 34.1318 29.4299 34.7876 30.0856C36.1788 31.4768 38.5388 30.4385 38.5312 28.4387C38.5254 26.9761 37.1961 25.9943 35.6285 26.2947ZM25.0549 30.926C22.8468 31.5351 20.7858 33.7072 20.4554 35.7736L20.3658 36.3333H26.7688H33.1716L33.0498 35.7667C32.7029 34.1533 31.399 32.372 29.9644 31.5511C28.617 30.7803 26.5413 30.5159 25.0549 30.926ZM34.9668 31.8727C34.1636 32.0889 33.3218 32.4925 33.089 32.7729C32.9616 32.9267 33.0074 33.1139 33.3168 33.702C33.5298 34.1071 33.8141 34.8648 33.9484 35.3859L34.1924 36.3333H37.9136H41.6349L41.5556 35.8448C41.4289 35.0643 40.8258 34.0161 40.0854 33.2896C38.6578 31.8888 36.8082 31.3768 34.9668 31.8727ZM17.1274 37.4095C16.9878 37.6353 17.1837 38.636 17.4548 39.0817C17.9989 39.9765 17.3064 39.9333 31.1004 39.9333H43.5605L44.0001 39.6333C44.5718 39.2431 44.9333 38.5467 44.9333 37.8355V37.2667H31.0745C21.3666 37.2667 17.1893 37.3095 17.1274 37.4095ZM28.6737 38.3915C28.5557 38.5336 28.5528 38.6539 28.6621 38.8581C28.8017 39.1191 28.9232 39.1333 31 39.1333C33.0768 39.1333 33.1982 39.1191 33.3378 38.8581C33.6461 38.2821 33.3541 38.2 31 38.2C29.279 38.2 28.7998 38.2395 28.6737 38.3915ZM29.6261 41.6333C29.5418 41.9817 29.4346 42.4016 29.3876 42.5667C29.3022 42.8665 29.3029 42.8667 31 42.8667C32.697 42.8667 32.6977 42.8665 32.6124 42.5667C32.5653 42.4016 32.4581 41.9817 32.3738 41.6333L32.2209 41H31H29.779L29.6261 41.6333Z" fill="#3E6B99"/>
</svg>
