<svg width="14" height="15" viewBox="0 0 14 15" fill="none" xmlns="http://www.w3.org/2000/svg">
<path d="M4.9585 7.5C5.44175 7.5 5.8335 7.10825 5.8335 6.625C5.8335 6.14175 5.44175 5.75 4.9585 5.75C4.47525 5.75 4.0835 6.14175 4.0835 6.625C4.0835 7.10825 4.47525 7.5 4.9585 7.5Z" stroke="#3E6B99"/>
<path d="M8.4585 10.4167C8.94175 10.4167 9.3335 10.0249 9.3335 9.54166C9.3335 9.05841 8.94175 8.66666 8.4585 8.66666C7.97525 8.66666 7.5835 9.05841 7.5835 9.54166C7.5835 10.0249 7.97525 10.4167 8.4585 10.4167Z" stroke="#3E6B99"/>
<path d="M10.7915 5.75C11.2748 5.75 11.6665 5.35825 11.6665 4.875C11.6665 4.39175 11.2748 4 10.7915 4C10.3083 4 9.9165 4.39175 9.9165 4.875C9.9165 5.35825 10.3083 5.75 10.7915 5.75Z" stroke="#3E6B99"/>
<path d="M9.00323 8.83951L10.5 5.75M5.5898 7.24823L7.70222 8.83951M1.75 11.5833L4.42725 7.42953" stroke="#3E6B99" stroke-linecap="round" stroke-linejoin="round"/>
<path d="M11.6665 12.75H5.24984C3.32494 12.75 2.36248 12.75 1.7645 12.152C1.1665 11.554 1.1665 10.5915 1.1665 8.66667V2.25" stroke="#3E6B99" stroke-linecap="round"/>
</svg>
