<svg width="14" height="15" viewBox="0 0 14 15" fill="none" xmlns="http://www.w3.org/2000/svg">
<g clip-path="url(#clip0_791_402)">
<path d="M4.08317 5.75C4.46994 5.75 4.84088 5.59636 5.11437 5.32287C5.38786 5.04938 5.5415 4.67845 5.5415 4.29167C5.5415 3.9049 5.38786 3.53396 5.11437 3.26047C4.84088 2.98698 4.46994 2.83334 4.08317 2.83334C3.6964 2.83334 3.32546 2.98698 3.05197 3.26047C2.77848 3.53396 2.62484 3.9049 2.62484 4.29167C2.62484 4.67845 2.77848 5.04938 3.05197 5.32287C3.32546 5.59636 3.6964 5.75 4.08317 5.75ZM4.08317 6.91667C3.73845 6.91667 3.39711 6.84877 3.07863 6.71686C2.76015 6.58494 2.47077 6.39158 2.22702 6.14783C1.98326 5.90407 1.78991 5.6147 1.65799 5.29622C1.52607 4.97774 1.45817 4.63639 1.45817 4.29167C1.45817 3.94695 1.52607 3.60561 1.65799 3.28713C1.78991 2.96865 1.98326 2.67927 2.22702 2.43552C2.47077 2.19176 2.76015 1.99841 3.07863 1.86649C3.39711 1.73457 3.73845 1.66667 4.08317 1.66667C4.77936 1.66667 5.44704 1.94323 5.93933 2.43552C6.43161 2.9278 6.70817 3.59548 6.70817 4.29167C6.70817 4.98786 6.43161 5.65554 5.93933 6.14783C5.44704 6.64011 4.77936 6.91667 4.08317 6.91667ZM10.2082 8.08334C10.5176 8.08334 10.8143 7.96042 11.0331 7.74163C11.2519 7.52284 11.3748 7.22609 11.3748 6.91667C11.3748 6.60725 11.2519 6.31051 11.0331 6.09171C10.8143 5.87292 10.5176 5.75 10.2082 5.75C9.89875 5.75 9.60201 5.87292 9.38321 6.09171C9.16442 6.31051 9.0415 6.60725 9.0415 6.91667C9.0415 7.22609 9.16442 7.52284 9.38321 7.74163C9.60201 7.96042 9.89875 8.08334 10.2082 8.08334ZM10.2082 9.25C9.58933 9.25 8.99584 9.00417 8.55825 8.56659C8.12067 8.129 7.87484 7.53551 7.87484 6.91667C7.87484 6.29783 8.12067 5.70434 8.55825 5.26676C8.99584 4.82917 9.58933 4.58334 10.2082 4.58334C10.827 4.58334 11.4205 4.82917 11.8581 5.26676C12.2957 5.70434 12.5415 6.29783 12.5415 6.91667C12.5415 7.53551 12.2957 8.129 11.8581 8.56659C11.4205 9.00417 10.827 9.25 10.2082 9.25ZM11.6665 12.75V12.4583C11.6665 12.0716 11.5129 11.7006 11.2394 11.4271C10.9659 11.1536 10.5949 11 10.2082 11C9.8214 11 9.45046 11.1536 9.17697 11.4271C8.90348 11.7006 8.74984 12.0716 8.74984 12.4583V12.75H7.58317V12.4583C7.58317 12.1136 7.65107 11.7723 7.78299 11.4538C7.91491 11.1353 8.10826 10.8459 8.35202 10.6022C8.59577 10.3584 8.88515 10.1651 9.20363 10.0332C9.52211 9.90124 9.86345 9.83334 10.2082 9.83334C10.5529 9.83334 10.8942 9.90124 11.2127 10.0332C11.5312 10.1651 11.8206 10.3584 12.0643 10.6022C12.3081 10.8459 12.5014 11.1353 12.6334 11.4538C12.7653 11.7723 12.8332 12.1136 12.8332 12.4583V12.75H11.6665ZM5.83317 12.75V10.4167C5.83317 9.95254 5.6488 9.50742 5.32061 9.17923C4.99242 8.85105 4.5473 8.66667 4.08317 8.66667C3.61904 8.66667 3.17392 8.85105 2.84573 9.17923C2.51755 9.50742 2.33317 9.95254 2.33317 10.4167V12.75H1.1665V10.4167C1.1665 9.64312 1.47379 8.90126 2.02078 8.35428C2.56776 7.8073 3.30962 7.5 4.08317 7.5C4.85672 7.5 5.59858 7.8073 6.14557 8.35428C6.69255 8.90126 6.99984 9.64312 6.99984 10.4167V12.75H5.83317Z" fill="#3E6B99"/>
</g>
<defs>
<clipPath id="clip0_791_402">
<rect width="14" height="14" fill="white" transform="translate(0 0.5)"/>
</clipPath>
</defs>
</svg>
