<svg width="14" height="15" viewBox="0 0 14 15" fill="none" xmlns="http://www.w3.org/2000/svg">
<path d="M4.37516 2.54167C3.46761 2.56889 2.92652 2.66991 2.55211 3.04466C2.03955 3.5577 2.03955 4.38343 2.03955 6.03488V9.83007C2.03955 11.4815 2.03955 12.3073 2.55211 12.8203C3.06468 13.3333 3.88964 13.3333 5.53955 13.3333H8.45622C10.1061 13.3333 10.9311 13.3333 11.4436 12.8203C11.9562 12.3073 11.9562 11.4815 11.9562 9.83007V6.03488C11.9562 4.38343 11.9562 3.5577 11.4436 3.04466C11.0693 2.66991 10.5282 2.56889 9.62062 2.54167" stroke="#3E6B99" stroke-width="0.875"/>
<path d="M4.37256 2.6875C4.37256 2.12371 4.82961 1.66667 5.39339 1.66667H8.60173C9.16552 1.66667 9.62256 2.12371 9.62256 2.6875C9.62256 3.25129 9.16552 3.70833 8.60173 3.70833H5.39339C4.82961 3.70833 4.37256 3.25129 4.37256 2.6875Z" stroke="#3E6B99" stroke-width="0.875" stroke-linejoin="round"/>
<path d="M7.875 6.91667H9.91667" stroke="#3E6B99" stroke-width="0.875" stroke-linecap="round"/>
<path d="M4.0835 7.5C4.0835 7.5 4.37516 7.5 4.66683 8.08333C4.66683 8.08333 5.5933 6.625 6.41683 6.33333" stroke="#3E6B99" stroke-width="0.875" stroke-linecap="round" stroke-linejoin="round"/>
<path d="M7.875 10.4167H9.91667" stroke="#3E6B99" stroke-width="0.875" stroke-linecap="round"/>
<path d="M4.6665 10.4167H5.24984" stroke="#3E6B99" stroke-width="1.16667" stroke-linecap="round" stroke-linejoin="round"/>
</svg>
