<svg width="10" height="10" viewBox="0 0 10 10" fill="none" xmlns="http://www.w3.org/2000/svg">
<g clip-path="url(#clip0_598_4003)">
<path d="M7.32508 4.0459C7.11537 3.98881 6.89466 3.95833 6.66683 3.95833C5.61133 3.95833 4.70858 4.61246 4.34191 5.53742M7.32508 4.0459C8.38645 4.33483 9.16683 5.30546 9.16683 6.45833C9.16683 7.83904 8.04754 8.95833 6.66683 8.95833C6.02654 8.95833 5.44245 8.71762 5.00016 8.32175M7.32508 4.0459C7.43808 3.76091 7.50016 3.45021 7.50016 3.125C7.50016 1.74429 6.38087 0.625 5.00016 0.625C3.61945 0.625 2.50016 1.74429 2.50016 3.125C2.50016 3.45021 2.56226 3.76091 2.67524 4.0459M4.34191 5.53742C4.22891 5.82242 4.16683 6.13312 4.16683 6.45833C4.16683 7.19875 4.4887 7.864 5.00016 8.32175M4.34191 5.53742C3.57994 5.33 2.96278 4.77125 2.67524 4.0459M5.00016 8.32175C4.55787 8.71762 3.97379 8.95833 3.3335 8.95833C1.95278 8.95833 0.833496 7.83904 0.833496 6.45833C0.833496 5.30546 1.61389 4.33483 2.67524 4.0459" stroke="#141B34" stroke-linecap="round"/>
</g>
<defs>
<clipPath id="clip0_598_4003">
<rect width="10" height="10" fill="white"/>
</clipPath>
</defs>
</svg>
